<svg width="476" height="427" viewBox="0 0 476 427" fill="none" xmlns="http://www.w3.org/2000/svg">
<rect width="476" height="427" fill="#1E1E1E"/>
<g filter="url(#filter0_d_0_1)">
<ellipse cx="218" cy="193.5" rx="218" ry="193.5" fill="#F1F3FB" fill-opacity="0.99" shape-rendering="crispEdges"/>
<path d="M434.5 193.5C434.5 299.376 337.743 385.5 218 385.5C98.2572 385.5 1.5 299.376 1.5 193.5C1.5 87.6244 98.2572 1.5 218 1.5C337.743 1.5 434.5 87.6244 434.5 193.5Z" stroke="#1E1E1E" stroke-width="3" shape-rendering="crispEdges"/>
</g>
<g filter="url(#filter1_d_0_1)">
<path d="M160.351 110.202C112.719 69.9533 31.903 148.956 104.775 177.284C185.093 208.507 173.551 250.751 164.881 267.465C162.259 272.52 158.238 276.737 153.45 279.82C111.243 306.987 73 257.783 73 257.783" stroke="#1E1E1E" stroke-width="3" stroke-linecap="round" shape-rendering="crispEdges"/>
<path d="M160.351 110.202C112.719 69.9533 31.903 148.956 104.775 177.284C185.093 208.507 173.551 250.751 164.881 267.465C162.259 272.52 158.238 276.737 153.45 279.82C111.243 306.987 73 257.783 73 257.783" stroke="black" stroke-opacity="0.15" stroke-width="3" stroke-linecap="round" shape-rendering="crispEdges"/>
</g>
<g filter="url(#filter2_d_0_1)">
<path d="M337.338 106C302.762 92.9999 274.438 124.623 268.378 132.989C237.451 175.686 252.755 227.834 262.459 251.453C265.988 260.042 276.721 271.137 284.622 276.014V276.014C322.339 299.301 358.94 264.825 353.074 220.888C350.179 199.209 344.988 184.093 337.338 190.115C310.169 211.499 302.762 190.115 302.762 190.115" stroke="#1E1E1E" stroke-width="3" stroke-linecap="round"/>
<path d="M337.338 106C302.762 92.9999 274.438 124.623 268.378 132.989C237.451 175.686 252.755 227.834 262.459 251.453C265.988 260.042 276.721 271.137 284.622 276.014V276.014C322.339 299.301 358.94 264.825 353.074 220.888C350.179 199.209 344.988 184.093 337.338 190.115C310.169 211.499 302.762 190.115 302.762 190.115" stroke="black" stroke-opacity="0.15" stroke-width="3" stroke-linecap="round"/>
</g>
<g filter="url(#filter3_f_0_1)">
<path d="M236.062 269.742C229.705 278.85 224.094 283.721 219.638 286.284C213.081 290.054 197.088 288.851 191.76 283.483V283.483C181.879 273.528 194.54 265.219 204.851 255.709C212.25 248.886 217.68 243.091 221.567 238.533C227.689 231.353 229.27 216.265 222.575 209.618V209.618C212.744 199.858 199.582 202.18 191.519 213.444C191.091 214.042 190.712 214.632 190.378 215.212C186.331 222.225 191.265 230.104 196.661 236.14C238.008 282.399 241.319 288.491 244 288.74" stroke="#1E1E1E"/>
</g>
<path d="M211 4L208 51" stroke="white" stroke-width="3" stroke-linecap="round"/>
<path d="M89 51L339 49" stroke="white" stroke-width="3" stroke-linecap="round"/>
<path d="M89 336L339 341" stroke="white" stroke-width="3" stroke-linecap="round"/>
<path d="M250 341C250 352.207 251 363.652 251 375" stroke="white" stroke-width="3" stroke-linecap="round"/>
<g filter="url(#filter4_d_0_1)">
<path d="M190.308 368.674V367.242L197.109 364.1V365.865L192.276 367.938L192.331 367.844V368.072L192.276 367.978L197.109 370.051V371.816L190.308 368.674ZM202.676 372.149C201.913 372.149 201.259 371.982 200.712 371.647C200.168 371.312 199.749 370.85 199.454 370.26C199.162 369.667 199.017 368.984 199.017 368.212C199.017 367.436 199.166 366.752 199.464 366.158C199.762 365.562 200.183 365.098 200.727 364.766C201.274 364.432 201.92 364.264 202.666 364.264C203.285 364.264 203.834 364.379 204.311 364.607C204.792 364.833 205.175 365.152 205.46 365.567C205.745 365.978 205.907 366.458 205.947 367.009H204.227C204.157 366.641 203.991 366.334 203.73 366.089C203.471 365.84 203.125 365.716 202.691 365.716C202.323 365.716 201.999 365.815 201.721 366.014C201.443 366.21 201.226 366.491 201.07 366.859C200.917 367.227 200.841 367.668 200.841 368.182C200.841 368.702 200.917 369.15 201.07 369.524C201.222 369.895 201.436 370.182 201.711 370.384C201.99 370.583 202.316 370.683 202.691 370.683C202.956 370.683 203.193 370.633 203.401 370.533C203.614 370.431 203.791 370.283 203.933 370.091C204.076 369.899 204.174 369.665 204.227 369.39H205.947C205.904 369.93 205.745 370.409 205.47 370.827C205.195 371.241 204.82 371.566 204.346 371.801C203.872 372.033 203.315 372.149 202.676 372.149ZM210.756 372.149C210.01 372.149 209.364 371.985 208.817 371.657C208.27 371.329 207.846 370.87 207.544 370.28C207.246 369.69 207.097 369 207.097 368.212C207.097 367.423 207.246 366.732 207.544 366.138C207.846 365.545 208.27 365.085 208.817 364.756C209.364 364.428 210.01 364.264 210.756 364.264C211.501 364.264 212.148 364.428 212.695 364.756C213.241 365.085 213.664 365.545 213.962 366.138C214.264 366.732 214.415 367.423 214.415 368.212C214.415 369 214.264 369.69 213.962 370.28C213.664 370.87 213.241 371.329 212.695 371.657C212.148 371.985 211.501 372.149 210.756 372.149ZM210.766 370.707C211.17 370.707 211.508 370.596 211.78 370.374C212.052 370.149 212.254 369.847 212.386 369.469C212.522 369.092 212.59 368.671 212.59 368.207C212.59 367.739 212.522 367.317 212.386 366.939C212.254 366.558 212.052 366.254 211.78 366.029C211.508 365.804 211.17 365.691 210.766 365.691C210.351 365.691 210.007 365.804 209.732 366.029C209.46 366.254 209.256 366.558 209.12 366.939C208.987 367.317 208.921 367.739 208.921 368.207C208.921 368.671 208.987 369.092 209.12 369.469C209.256 369.847 209.46 370.149 209.732 370.374C210.007 370.596 210.351 370.707 210.766 370.707ZM218.776 372.134C218.176 372.134 217.639 371.98 217.165 371.672C216.691 371.364 216.317 370.916 216.042 370.33C215.767 369.743 215.629 369.03 215.629 368.192C215.629 367.343 215.768 366.627 216.047 366.044C216.328 365.457 216.708 365.015 217.185 364.717C217.662 364.415 218.194 364.264 218.781 364.264C219.229 364.264 219.596 364.34 219.885 364.493C220.173 364.642 220.402 364.823 220.571 365.035C220.74 365.244 220.871 365.441 220.964 365.626H221.038V361.818H222.843V372H221.073V370.797H220.964C220.871 370.982 220.737 371.18 220.561 371.388C220.385 371.594 220.153 371.77 219.865 371.915C219.577 372.061 219.214 372.134 218.776 372.134ZM219.278 370.658C219.659 370.658 219.984 370.555 220.253 370.349C220.521 370.141 220.725 369.851 220.864 369.479C221.003 369.108 221.073 368.676 221.073 368.182C221.073 367.688 221.003 367.259 220.864 366.894C220.728 366.53 220.526 366.246 220.258 366.044C219.992 365.842 219.666 365.741 219.278 365.741C218.877 365.741 218.542 365.845 218.274 366.054C218.006 366.263 217.803 366.551 217.667 366.919C217.532 367.287 217.464 367.708 217.464 368.182C217.464 368.659 217.532 369.085 217.667 369.46C217.807 369.831 218.01 370.124 218.279 370.339C218.551 370.552 218.884 370.658 219.278 370.658ZM228.141 372.149C227.376 372.149 226.714 371.99 226.158 371.672C225.604 371.35 225.178 370.896 224.88 370.31C224.582 369.72 224.433 369.025 224.433 368.227C224.433 367.441 224.582 366.752 224.88 366.158C225.182 365.562 225.603 365.098 226.143 364.766C226.683 364.432 227.318 364.264 228.047 364.264C228.518 364.264 228.962 364.34 229.379 364.493C229.8 364.642 230.171 364.874 230.493 365.189C230.818 365.504 231.073 365.905 231.259 366.392C231.444 366.876 231.537 367.453 231.537 368.122V368.674H225.278V367.461H229.812C229.808 367.116 229.734 366.81 229.588 366.541C229.442 366.269 229.238 366.056 228.977 365.9C228.718 365.744 228.416 365.666 228.072 365.666C227.704 365.666 227.381 365.756 227.102 365.935C226.824 366.11 226.607 366.342 226.451 366.631C226.299 366.916 226.221 367.229 226.217 367.57V368.629C226.217 369.073 226.299 369.455 226.461 369.773C226.623 370.088 226.85 370.33 227.142 370.499C227.434 370.664 227.775 370.747 228.166 370.747C228.428 370.747 228.665 370.711 228.877 370.638C229.089 370.562 229.273 370.451 229.429 370.305C229.585 370.159 229.702 369.978 229.782 369.763L231.462 369.952C231.356 370.396 231.154 370.784 230.856 371.115C230.561 371.443 230.183 371.698 229.722 371.881C229.262 372.06 228.735 372.149 228.141 372.149ZM240.243 368.674L233.442 371.816V370.051L238.275 367.978L238.22 368.072V367.844L238.275 367.938L233.442 365.865V364.1L240.243 367.242V368.674Z" fill="#020656" shape-rendering="crispEdges"/>
<path d="M190.308 368.674H189.308V369.314L189.888 369.582L190.308 368.674ZM190.308 367.242L189.888 366.334L189.308 366.603V367.242H190.308ZM197.109 364.1H198.109V362.537L196.689 363.192L197.109 364.1ZM197.109 365.865L197.503 366.784L198.109 366.524V365.865H197.109ZM192.276 367.938L191.411 367.437L189.901 370.045L192.671 368.857L192.276 367.938ZM192.331 367.844H193.331V364.121L191.466 367.343L192.331 367.844ZM192.331 368.072L191.466 368.573L193.331 371.796V368.072H192.331ZM192.276 367.978L192.671 367.059L189.901 365.871L191.411 368.479L192.276 367.978ZM197.109 370.051H198.109V369.392L197.503 369.132L197.109 370.051ZM197.109 371.816L196.689 372.724L198.109 373.38V371.816H197.109ZM191.308 368.674V367.242H189.308V368.674H191.308ZM190.727 368.15L197.528 365.008L196.689 363.192L189.888 366.334L190.727 368.15ZM196.109 364.1V365.865H198.109V364.1H196.109ZM196.714 364.946L191.882 367.019L192.671 368.857L197.503 366.784L196.714 364.946ZM193.142 368.439L193.196 368.345L191.466 367.343L191.411 367.437L193.142 368.439ZM191.331 367.844V368.072H193.331V367.844H191.331ZM193.196 367.571L193.142 367.477L191.411 368.479L191.466 368.573L193.196 367.571ZM191.882 368.897L196.714 370.97L197.503 369.132L192.671 367.059L191.882 368.897ZM196.109 370.051V371.816H198.109V370.051H196.109ZM197.528 370.908L190.727 367.766L189.888 369.582L196.689 372.724L197.528 370.908ZM200.712 371.647L200.187 372.499L200.19 372.5L200.712 371.647ZM199.454 370.26L198.557 370.701L198.56 370.707L199.454 370.26ZM199.464 366.158L200.357 366.608L200.358 366.606L199.464 366.158ZM200.727 364.766L201.247 365.62L201.249 365.619L200.727 364.766ZM204.311 364.607L203.879 365.509L203.887 365.513L204.311 364.607ZM205.46 365.567L204.636 366.134L204.638 366.137L205.46 365.567ZM205.947 367.009V368.009H207.022L206.944 366.936L205.947 367.009ZM204.227 367.009L203.244 367.194L203.398 368.009H204.227V367.009ZM203.73 366.089L203.036 366.81L203.046 366.819L203.73 366.089ZM201.721 366.014L202.296 366.833L202.302 366.828L201.721 366.014ZM201.07 366.859L200.149 366.469L200.146 366.477L201.07 366.859ZM201.07 369.524L200.144 369.901L200.145 369.904L201.07 369.524ZM201.711 370.384L201.119 371.19L201.13 371.198L201.711 370.384ZM203.401 370.533L203.831 371.436L203.837 371.433L203.401 370.533ZM203.933 370.091L203.13 369.495L203.13 369.495L203.933 370.091ZM204.227 369.39V368.39H203.401L203.245 369.201L204.227 369.39ZM205.947 369.39L206.944 369.469L207.03 368.39H205.947V369.39ZM205.47 370.827L206.303 371.38L206.305 371.377L205.47 370.827ZM204.346 371.801L204.786 372.699L204.791 372.697L204.346 371.801ZM202.676 371.149C202.062 371.149 201.596 371.016 201.234 370.794L200.19 372.5C200.921 372.948 201.764 373.149 202.676 373.149V371.149ZM201.236 370.796C200.857 370.562 200.563 370.242 200.348 369.813L198.56 370.707C198.935 371.458 199.48 372.063 200.187 372.498L201.236 370.796ZM200.351 369.819C200.138 369.384 200.017 368.857 200.017 368.212H198.017C198.017 369.111 198.187 369.949 198.557 370.701L200.351 369.819ZM200.017 368.212C200.017 367.566 200.14 367.04 200.357 366.608L198.571 365.709C198.191 366.463 198.017 367.306 198.017 368.212H200.017ZM200.358 366.606C200.577 366.169 200.872 365.849 201.247 365.62L200.206 363.913C199.494 364.347 198.948 364.955 198.57 365.711L200.358 366.606ZM201.249 365.619C201.614 365.395 202.074 365.264 202.666 365.264V363.264C201.766 363.264 200.933 363.468 200.205 363.913L201.249 365.619ZM202.666 365.264C203.161 365.264 203.558 365.355 203.879 365.509L204.743 363.705C204.11 363.402 203.41 363.264 202.666 363.264V365.264ZM203.887 365.513C204.216 365.667 204.457 365.874 204.636 366.134L206.284 365C205.892 364.431 205.368 363.998 204.736 363.702L203.887 365.513ZM204.638 366.137C204.811 366.386 204.921 366.69 204.95 367.081L206.944 366.936C206.893 366.226 206.679 365.57 206.281 364.997L204.638 366.137ZM205.947 366.009H204.227V368.009H205.947V366.009ZM205.209 366.823C205.102 366.256 204.837 365.756 204.413 365.359L203.046 366.819C203.146 366.912 203.212 367.025 203.244 367.194L205.209 366.823ZM204.423 365.368C203.94 364.904 203.325 364.716 202.691 364.716V366.716C202.924 366.716 203.002 366.777 203.036 366.81L204.423 365.368ZM202.691 364.716C202.131 364.716 201.601 364.871 201.14 365.2L202.302 366.828C202.398 366.76 202.514 366.716 202.691 366.716V364.716ZM201.146 365.196C200.69 365.517 200.365 365.96 200.149 366.469L201.991 367.249C202.086 367.023 202.196 366.903 202.296 366.833L201.146 365.196ZM200.146 366.477C199.931 366.995 199.841 367.573 199.841 368.182H201.841C201.841 367.763 201.904 367.459 201.994 367.242L200.146 366.477ZM199.841 368.182C199.841 368.796 199.931 369.378 200.144 369.901L201.996 369.147C201.904 368.921 201.841 368.608 201.841 368.182H199.841ZM200.145 369.904C200.355 370.415 200.672 370.861 201.119 371.19L202.303 369.578C202.2 369.503 202.09 369.376 201.995 369.144L200.145 369.904ZM201.13 371.198C201.594 371.529 202.128 371.683 202.691 371.683V369.683C202.504 369.683 202.385 369.637 202.292 369.57L201.13 371.198ZM202.691 371.683C203.083 371.683 203.47 371.608 203.831 371.436L202.972 369.631C202.915 369.657 202.829 369.683 202.691 369.683V371.683ZM203.837 371.433C204.197 371.259 204.5 371.006 204.737 370.686L203.13 369.495C203.082 369.56 203.03 369.602 202.966 369.633L203.837 371.433ZM204.737 370.686C204.982 370.355 205.132 369.976 205.209 369.579L203.245 369.201C203.215 369.354 203.169 369.442 203.13 369.495L204.737 370.686ZM204.227 370.39H205.947V368.39H204.227V370.39ZM204.95 369.31C204.919 369.697 204.809 370.011 204.635 370.277L206.305 371.377C206.68 370.807 206.888 370.163 206.944 369.469L204.95 369.31ZM204.637 370.274C204.465 370.532 204.228 370.743 203.901 370.905L204.791 372.697C205.412 372.389 205.924 371.95 206.303 371.38L204.637 370.274ZM203.906 370.903C203.595 371.055 203.195 371.149 202.676 371.149V373.149C203.436 373.149 204.149 373.011 204.786 372.699L203.906 370.903ZM208.817 371.657L208.302 372.514L208.302 372.514L208.817 371.657ZM207.544 370.28L206.652 370.731L206.654 370.735L207.544 370.28ZM207.544 366.138L206.653 365.685L206.651 365.689L207.544 366.138ZM208.817 364.756L209.331 365.614L209.331 365.614L208.817 364.756ZM212.695 364.756L212.18 365.614L212.18 365.614L212.695 364.756ZM213.962 366.138L213.069 366.588L213.071 366.592L213.962 366.138ZM213.962 370.28L213.072 369.825L213.07 369.829L213.962 370.28ZM212.695 371.657L212.18 370.799L212.18 370.799L212.695 371.657ZM211.78 370.374L212.413 371.149L212.418 371.144L211.78 370.374ZM212.386 369.469L211.445 369.131L211.443 369.138L212.386 369.469ZM212.386 366.939L211.442 367.267L211.445 367.277L212.386 366.939ZM211.78 366.029L212.418 365.259L212.418 365.259L211.78 366.029ZM209.732 366.029L209.098 365.256L209.093 365.259L209.732 366.029ZM209.12 366.939L208.178 366.603L208.176 366.608L209.12 366.939ZM209.12 369.469L208.176 369.801L208.179 369.808L209.12 369.469ZM209.732 370.374L209.093 371.144L209.103 371.152L209.732 370.374ZM210.756 371.149C210.16 371.149 209.698 371.02 209.331 370.799L208.302 372.514C209.029 372.951 209.86 373.149 210.756 373.149V371.149ZM209.331 370.799C208.951 370.571 208.654 370.255 208.434 369.825L206.654 370.735C207.037 371.485 207.588 372.086 208.302 372.514L209.331 370.799ZM208.436 369.829C208.221 369.403 208.097 368.874 208.097 368.212H206.097C206.097 369.127 206.27 369.977 206.652 370.731L208.436 369.829ZM208.097 368.212C208.097 367.55 208.221 367.018 208.437 366.588L206.651 365.689C206.27 366.446 206.097 367.296 206.097 368.212H208.097ZM208.435 366.592C208.656 366.158 208.953 365.841 209.331 365.614L208.302 363.899C207.587 364.328 207.035 364.932 206.653 365.685L208.435 366.592ZM209.331 365.614C209.698 365.394 210.16 365.264 210.756 365.264V363.264C209.86 363.264 209.029 363.463 208.302 363.899L209.331 365.614ZM210.756 365.264C211.351 365.264 211.813 365.394 212.18 365.614L213.209 363.899C212.482 363.463 211.652 363.264 210.756 363.264V365.264ZM212.18 365.614C212.558 365.84 212.852 366.156 213.069 366.588L214.856 365.689C214.476 364.934 213.925 364.329 213.209 363.899L212.18 365.614ZM213.071 366.592C213.289 367.021 213.415 367.551 213.415 368.212H215.415C215.415 367.294 215.239 366.443 214.854 365.685L213.071 366.592ZM213.415 368.212C213.415 368.872 213.289 369.4 213.072 369.825L214.853 370.735C215.239 369.98 215.415 369.129 215.415 368.212H213.415ZM213.07 369.829C212.853 370.257 212.559 370.572 212.18 370.799L213.209 372.514C213.924 372.086 214.475 371.483 214.855 370.731L213.07 369.829ZM212.18 370.799C211.813 371.02 211.351 371.149 210.756 371.149V373.149C211.652 373.149 212.482 372.951 213.209 372.514L212.18 370.799ZM210.766 371.707C211.364 371.707 211.936 371.538 212.413 371.149L211.147 369.6C211.081 369.654 210.976 369.707 210.766 369.707V371.707ZM212.418 371.144C212.848 370.788 213.146 370.326 213.33 369.801L211.443 369.138C211.362 369.368 211.256 369.51 211.141 369.605L212.418 371.144ZM213.327 369.808C213.508 369.306 213.59 368.768 213.59 368.207H211.59C211.59 368.573 211.537 368.877 211.445 369.131L213.327 369.808ZM213.59 368.207C213.59 367.643 213.508 367.103 213.327 366.6L211.445 367.277C211.536 367.53 211.59 367.836 211.59 368.207H213.59ZM213.331 366.61C213.147 366.082 212.849 365.617 212.418 365.259L211.141 366.799C211.254 366.892 211.36 367.033 211.442 367.267L213.331 366.61ZM212.418 365.259C211.941 364.864 211.367 364.691 210.766 364.691V366.691C210.973 366.691 211.075 366.744 211.141 366.799L212.418 365.259ZM210.766 364.691C210.16 364.691 209.58 364.86 209.098 365.256L210.365 366.803C210.433 366.747 210.542 366.691 210.766 366.691V364.691ZM209.093 365.259C208.664 365.615 208.365 366.078 208.178 366.603L210.062 367.275C210.146 367.038 210.256 366.894 210.37 366.799L209.093 365.259ZM208.176 366.608C208.001 367.108 207.921 367.645 207.921 368.207H209.921C209.921 367.834 209.974 367.525 210.064 367.27L208.176 366.608ZM207.921 368.207C207.921 368.766 208.001 369.301 208.176 369.801L210.064 369.138C209.974 368.882 209.921 368.576 209.921 368.207H207.921ZM208.179 369.808C208.367 370.33 208.666 370.79 209.093 371.144L210.37 369.605C210.254 369.508 210.145 369.364 210.061 369.131L208.179 369.808ZM209.103 371.152C209.586 371.542 210.164 371.707 210.766 371.707V369.707C210.539 369.707 210.427 369.651 210.36 369.596L209.103 371.152ZM217.165 371.672L216.62 372.51L216.62 372.51L217.165 371.672ZM216.042 370.33L216.947 369.905L216.947 369.905L216.042 370.33ZM216.047 366.044L215.145 365.611L215.144 365.613L216.047 366.044ZM217.185 364.717L217.715 365.565L217.719 365.562L217.185 364.717ZM219.885 364.493L219.417 365.377L219.425 365.381L219.885 364.493ZM220.571 365.035L219.789 365.658L219.794 365.664L220.571 365.035ZM220.964 365.626L220.069 366.074L220.346 366.626H220.964V365.626ZM221.038 365.626V366.626H222.038V365.626H221.038ZM221.038 361.818V360.818H220.038V361.818H221.038ZM222.843 361.818H223.843V360.818H222.843V361.818ZM222.843 372V373H223.843V372H222.843ZM221.073 372H220.073V373H221.073V372ZM221.073 370.797H222.073V369.797H221.073V370.797ZM220.964 370.797V369.797H220.346L220.069 370.35L220.964 370.797ZM220.561 371.388L221.321 372.038L221.326 372.032L220.561 371.388ZM219.865 371.915L220.316 372.808L220.316 372.808L219.865 371.915ZM220.253 370.349L220.86 371.144L220.867 371.139L220.253 370.349ZM220.864 369.479L219.928 369.128L219.928 369.128L220.864 369.479ZM220.864 366.894L219.927 367.243L219.93 367.251L220.864 366.894ZM220.258 366.044L219.651 366.839L219.656 366.843L220.258 366.044ZM218.274 366.054L217.66 365.265L217.66 365.265L218.274 366.054ZM217.667 366.919L216.729 366.573L216.729 366.573L217.667 366.919ZM217.667 369.46L216.727 369.801L216.731 369.811L217.667 369.46ZM218.279 370.339L217.653 371.119L217.664 371.128L218.279 370.339ZM218.776 371.134C218.357 371.134 218.012 371.03 217.71 370.834L216.62 372.51C217.266 372.931 217.995 373.134 218.776 373.134V371.134ZM217.71 370.834C217.415 370.641 217.155 370.348 216.947 369.905L215.136 370.754C215.479 371.484 215.968 372.086 216.62 372.51L217.71 370.834ZM216.947 369.905C216.75 369.484 216.629 368.925 216.629 368.192H214.629C214.629 369.136 214.783 370.002 215.136 370.754L216.947 369.905ZM216.629 368.192C216.629 367.448 216.752 366.888 216.949 366.475L215.144 365.613C214.785 366.366 214.629 367.239 214.629 368.192H216.629ZM216.948 366.477C217.161 366.034 217.422 365.748 217.715 365.565L216.655 363.869C215.993 364.282 215.496 364.881 215.145 365.611L216.948 366.477ZM217.719 365.562C218.03 365.365 218.376 365.264 218.781 365.264V363.264C218.013 363.264 217.295 363.465 216.651 363.871L217.719 365.562ZM218.781 365.264C219.123 365.264 219.317 365.324 219.417 365.377L220.352 363.609C219.876 363.357 219.334 363.264 218.781 363.264V365.264ZM219.425 365.381C219.613 365.478 219.723 365.575 219.789 365.658L221.353 364.412C221.081 364.07 220.733 363.806 220.344 363.605L219.425 365.381ZM219.794 365.664C219.93 365.832 220.017 365.968 220.069 366.074L221.858 365.179C221.725 364.913 221.55 364.655 221.348 364.406L219.794 365.664ZM220.964 366.626H221.038V364.626H220.964V366.626ZM222.038 365.626V361.818H220.038V365.626H222.038ZM221.038 362.818H222.843V360.818H221.038V362.818ZM221.843 361.818V372H223.843V361.818H221.843ZM222.843 371H221.073V373H222.843V371ZM222.073 372V370.797H220.073V372H222.073ZM221.073 369.797H220.964V371.797H221.073V369.797ZM220.069 370.35C220.021 370.447 219.936 370.578 219.796 370.745L221.326 372.032C221.538 371.781 221.721 371.518 221.858 371.244L220.069 370.35ZM219.801 370.739C219.726 370.826 219.607 370.926 219.414 371.023L220.316 372.808C220.7 372.614 221.044 372.362 221.321 372.038L219.801 370.739ZM219.414 371.023C219.306 371.078 219.11 371.134 218.776 371.134V373.134C219.318 373.134 219.847 373.045 220.316 372.808L219.414 371.023ZM219.278 371.658C219.85 371.658 220.396 371.499 220.86 371.144L219.645 369.555C219.573 369.61 219.469 369.658 219.278 369.658V371.658ZM220.867 371.139C221.304 370.799 221.607 370.346 221.8 369.831L219.928 369.128C219.843 369.356 219.739 369.482 219.639 369.56L220.867 371.139ZM221.8 369.831C221.991 369.323 222.073 368.767 222.073 368.182H220.073C220.073 368.584 220.016 368.893 219.928 369.128L221.8 369.831ZM222.073 368.182C222.073 367.597 221.991 367.042 221.798 366.537L219.93 367.251C220.016 367.476 220.073 367.779 220.073 368.182H222.073ZM221.801 366.545C221.609 366.03 221.303 365.579 220.859 365.245L219.656 366.843C219.749 366.913 219.847 367.029 219.927 367.243L221.801 366.545ZM220.864 365.249C220.397 364.893 219.848 364.741 219.278 364.741V366.741C219.484 366.741 219.588 366.791 219.651 366.839L220.864 365.249ZM219.278 364.741C218.696 364.741 218.134 364.896 217.66 365.265L218.888 366.843C218.951 366.794 219.058 366.741 219.278 366.741V364.741ZM217.66 365.265C217.223 365.605 216.92 366.057 216.729 366.573L218.605 367.266C218.687 367.045 218.788 366.921 218.888 366.843L217.66 365.265ZM216.729 366.573C216.545 367.072 216.464 367.614 216.464 368.182H218.464C218.464 367.802 218.518 367.502 218.605 367.266L216.729 366.573ZM216.464 368.182C216.464 368.753 216.545 369.297 216.727 369.801L218.607 369.118C218.518 368.872 218.464 368.565 218.464 368.182H216.464ZM216.731 369.811C216.924 370.324 217.224 370.775 217.653 371.119L218.905 369.56C218.797 369.473 218.69 369.337 218.604 369.108L216.731 369.811ZM217.664 371.128C218.136 371.496 218.695 371.658 219.278 371.658V369.658C219.073 369.658 218.965 369.607 218.894 369.551L217.664 371.128ZM226.158 371.672L225.655 372.537L225.662 372.54L226.158 371.672ZM224.88 370.31L223.988 370.761L223.989 370.763L224.88 370.31ZM224.88 366.158L223.988 365.707L223.987 365.709L224.88 366.158ZM226.143 364.766L226.666 365.619L226.669 365.616L226.143 364.766ZM229.379 364.493L229.036 365.432L229.045 365.435L229.379 364.493ZM230.493 365.189L229.793 365.903L229.797 365.907L230.493 365.189ZM231.259 366.392L230.324 366.748L230.325 366.75L231.259 366.392ZM231.537 368.674V369.674H232.537V368.674H231.537ZM225.278 368.674H224.278V369.674H225.278V368.674ZM225.278 367.461V366.461H224.278V367.461H225.278ZM229.812 367.461V368.461H230.821L230.812 367.451L229.812 367.461ZM229.588 366.541L228.707 367.014L228.709 367.019L229.588 366.541ZM228.977 365.9L228.46 366.756L228.465 366.759L228.977 365.9ZM227.102 365.935L227.636 366.78L227.643 366.776L227.102 365.935ZM226.451 366.631L225.571 366.155L225.569 366.159L226.451 366.631ZM226.217 367.57L225.217 367.561V367.57H226.217ZM226.461 369.773L225.57 370.227L225.572 370.231L226.461 369.773ZM227.142 370.499L226.641 371.364L226.648 371.368L227.142 370.499ZM228.877 370.638L229.202 371.584L229.215 371.579L228.877 370.638ZM229.429 370.305L228.746 369.575L229.429 370.305ZM229.782 369.763L229.894 368.769L229.115 368.682L228.844 369.416L229.782 369.763ZM231.462 369.952L232.435 370.184L232.698 369.084L231.574 368.958L231.462 369.952ZM230.856 371.115L230.113 370.446L230.112 370.447L230.856 371.115ZM229.722 371.881L230.084 372.813L230.09 372.811L229.722 371.881ZM228.141 371.149C227.516 371.149 227.033 371.02 226.654 370.804L225.662 372.54C226.396 372.96 227.235 373.149 228.141 373.149V371.149ZM226.66 370.807C226.278 370.585 225.985 370.276 225.771 369.856L223.989 370.763C224.372 371.516 224.93 372.115 225.655 372.537L226.66 370.807ZM225.772 369.858C225.558 369.435 225.433 368.901 225.433 368.227H223.433C223.433 369.15 223.605 370.005 223.988 370.761L225.772 369.858ZM225.433 368.227C225.433 367.569 225.557 367.038 225.773 366.608L223.987 365.709C223.606 366.465 223.433 367.313 223.433 368.227H225.433ZM225.772 366.61C225.995 366.169 226.292 365.848 226.666 365.619L225.62 363.914C224.913 364.348 224.368 364.955 223.988 365.707L225.772 366.61ZM226.669 365.616C227.029 365.393 227.476 365.264 228.047 365.264V363.264C227.16 363.264 226.337 363.47 225.616 363.916L226.669 365.616ZM228.047 365.264C228.407 365.264 228.735 365.322 229.036 365.432L229.722 363.554C229.188 363.359 228.628 363.264 228.047 363.264V365.264ZM229.045 365.435C229.328 365.536 229.575 365.689 229.793 365.903L231.193 364.474C230.768 364.059 230.272 363.748 229.713 363.55L229.045 365.435ZM229.797 365.907C230.002 366.106 230.183 366.377 230.324 366.748L232.193 366.036C231.963 365.433 231.634 364.902 231.189 364.471L229.797 365.907ZM230.325 366.75C230.456 367.092 230.537 367.541 230.537 368.122H232.537C232.537 367.364 232.432 366.66 232.192 366.034L230.325 366.75ZM230.537 368.122V368.674H232.537V368.122H230.537ZM231.537 367.674H225.278V369.674H231.537V367.674ZM226.278 368.674V367.461H224.278V368.674H226.278ZM225.278 368.461H229.812V366.461H225.278V368.461ZM230.812 367.451C230.807 366.964 230.7 366.494 230.467 366.064L228.709 367.019C228.768 367.126 228.81 367.268 228.812 367.471L230.812 367.451ZM230.469 366.068C230.239 365.639 229.908 365.29 229.488 365.04L228.465 366.759C228.569 366.821 228.646 366.9 228.707 367.014L230.469 366.068ZM229.493 365.043C229.057 364.781 228.572 364.666 228.072 364.666V366.666C228.261 366.666 228.379 366.707 228.46 366.756L229.493 365.043ZM228.072 364.666C227.534 364.666 227.019 364.799 226.562 365.093L227.643 366.776C227.742 366.712 227.873 366.666 228.072 366.666V364.666ZM226.569 365.089C226.146 365.356 225.809 365.715 225.571 366.155L227.331 367.106C227.405 366.97 227.502 366.865 227.636 366.78L226.569 365.089ZM225.569 366.159C225.336 366.594 225.222 367.067 225.217 367.561L227.217 367.58C227.219 367.391 227.261 367.237 227.333 367.102L225.569 366.159ZM225.217 367.57V368.629H227.217V367.57H225.217ZM225.217 368.629C225.217 369.194 225.321 369.738 225.57 370.227L227.352 369.318C227.276 369.171 227.217 368.953 227.217 368.629H225.217ZM225.572 370.231C225.818 370.707 226.175 371.094 226.641 371.364L227.643 369.633C227.526 369.565 227.429 369.468 227.35 369.314L225.572 370.231ZM226.648 371.368C227.114 371.633 227.631 371.747 228.166 371.747V369.747C227.919 369.747 227.754 369.696 227.636 369.629L226.648 371.368ZM228.166 371.747C228.521 371.747 228.87 371.698 229.202 371.583L228.552 369.692C228.46 369.724 228.336 369.747 228.166 369.747V371.747ZM229.215 371.579C229.548 371.459 229.852 371.279 230.112 371.035L228.746 369.575C228.695 369.622 228.63 369.664 228.539 369.697L229.215 371.579ZM230.112 371.035C230.39 370.775 230.591 370.459 230.72 370.109L228.844 369.416C228.814 369.497 228.779 369.543 228.746 369.575L230.112 371.035ZM229.67 370.757L231.351 370.945L231.574 368.958L229.894 368.769L229.67 370.757ZM230.49 369.719C230.421 370.005 230.296 370.242 230.113 370.446L231.599 371.784C232.012 371.325 232.291 370.786 232.435 370.184L230.49 369.719ZM230.112 370.447C229.933 370.646 229.689 370.818 229.354 370.951L230.09 372.811C230.677 372.578 231.189 372.24 231.599 371.784L230.112 370.447ZM229.36 370.949C229.036 371.075 228.635 371.149 228.141 371.149V373.149C228.834 373.149 229.488 373.045 230.084 372.813L229.36 370.949ZM240.243 368.674L240.663 369.582L241.243 369.314V368.674H240.243ZM233.442 371.816H232.442V373.38L233.862 372.724L233.442 371.816ZM233.442 370.051L233.048 369.132L232.442 369.392V370.051H233.442ZM238.275 367.978L239.14 368.479L240.65 365.871L237.88 367.059L238.275 367.978ZM238.22 368.072H237.22V371.796L239.085 368.573L238.22 368.072ZM238.22 367.844L239.085 367.343L237.22 364.121V367.844H238.22ZM238.275 367.938L237.88 368.857L240.65 370.045L239.14 367.437L238.275 367.938ZM233.442 365.865H232.442V366.524L233.048 366.784L233.442 365.865ZM233.442 364.1L233.862 363.192L232.442 362.537V364.1H233.442ZM240.243 367.242H241.243V366.603L240.663 366.334L240.243 367.242ZM239.824 367.766L233.023 370.908L233.862 372.724L240.663 369.582L239.824 367.766ZM234.442 371.816V370.051H232.442V371.816H234.442ZM233.837 370.97L238.669 368.897L237.88 367.059L233.048 369.132L233.837 370.97ZM237.409 367.477L237.355 367.571L239.085 368.573L239.14 368.479L237.409 367.477ZM239.22 368.072V367.844H237.22V368.072H239.22ZM237.355 368.345L237.409 368.439L239.14 367.437L239.085 367.343L237.355 368.345ZM238.669 367.019L233.837 364.946L233.048 366.784L237.88 368.857L238.669 367.019ZM234.442 365.865V364.1H232.442V365.865H234.442ZM233.023 365.008L239.824 368.15L240.663 366.334L233.862 363.192L233.023 365.008ZM239.243 367.242V368.674H241.243V367.242H239.243Z" fill="#D2CEFF" fill-opacity="0.33"/>
</g>
<defs>
<filter id="filter0_d_0_1" x="0" y="0" width="476" height="427" filterUnits="userSpaceOnUse" color-interpolation-filters="sRGB">
<feFlood flood-opacity="0" result="BackgroundImageFix"/>
<feColorMatrix in="SourceAlpha" type="matrix" values="0 0 0 0 0 0 0 0 0 0 0 0 0 0 0 0 0 0 127 0" result="hardAlpha"/>
<feOffset dx="20" dy="20"/>
<feGaussianBlur stdDeviation="10"/>
<feComposite in2="hardAlpha" operator="out"/>
<feColorMatrix type="matrix" values="0 0 0 0 0.0578125 0 0 0 0 0.404687 0 0 0 0 0.925 0 0 0 0.44 0"/>
<feBlend mode="normal" in2="BackgroundImageFix" result="effect1_dropShadow_0_1"/>
<feBlend mode="normal" in="SourceGraphic" in2="effect1_dropShadow_0_1" result="shape"/>
</filter>
<filter id="filter1_d_0_1" x="71.4999" y="97.4935" width="110.001" height="200.008" filterUnits="userSpaceOnUse" color-interpolation-filters="sRGB">
<feFlood flood-opacity="0" result="BackgroundImageFix"/>
<feColorMatrix in="SourceAlpha" type="matrix" values="0 0 0 0 0 0 0 0 0 0 0 0 0 0 0 0 0 0 127 0" result="hardAlpha"/>
<feOffset dx="5" dy="4"/>
<feGaussianBlur stdDeviation="2"/>
<feComposite in2="hardAlpha" operator="out"/>
<feColorMatrix type="matrix" values="0 0 0 0 0 0 0 0 0 0 0 0 0 0 0 0 0 0 0.25 0"/>
<feBlend mode="normal" in2="BackgroundImageFix" result="effect1_dropShadow_0_1"/>
<feBlend mode="normal" in="SourceGraphic" in2="effect1_dropShadow_0_1" result="shape"/>
</filter>
<filter id="filter2_d_0_1" x="248.487" y="101.403" width="115.708" height="191.608" filterUnits="userSpaceOnUse" color-interpolation-filters="sRGB">
<feFlood flood-opacity="0" result="BackgroundImageFix"/>
<feColorMatrix in="SourceAlpha" type="matrix" values="0 0 0 0 0 0 0 0 0 0 0 0 0 0 0 0 0 0 127 0" result="hardAlpha"/>
<feOffset dx="5" dy="4"/>
<feGaussianBlur stdDeviation="2"/>
<feComposite in2="hardAlpha" operator="out"/>
<feColorMatrix type="matrix" values="0 0 0 0 0 0 0 0 0 0 0 0 0 0 0 0 0 0 0.25 0"/>
<feBlend mode="normal" in2="BackgroundImageFix" result="effect1_dropShadow_0_1"/>
<feBlend mode="normal" in="SourceGraphic" in2="effect1_dropShadow_0_1" result="shape"/>
</filter>
<filter id="filter3_f_0_1" x="184.686" y="199.979" width="62.3603" height="92.2583" filterUnits="userSpaceOnUse" color-interpolation-filters="sRGB">
<feFlood flood-opacity="0" result="BackgroundImageFix"/>
<feBlend mode="normal" in="SourceGraphic" in2="BackgroundImageFix" result="shape"/>
<feGaussianBlur stdDeviation="1.5" result="effect1_foregroundBlur_0_1"/>
</filter>
<filter id="filter4_d_0_1" x="185.308" y="360.818" width="59.9359" height="20.331" filterUnits="userSpaceOnUse" color-interpolation-filters="sRGB">
<feFlood flood-opacity="0" result="BackgroundImageFix"/>
<feColorMatrix in="SourceAlpha" type="matrix" values="0 0 0 0 0 0 0 0 0 0 0 0 0 0 0 0 0 0 127 0" result="hardAlpha"/>
<feOffset dy="4"/>
<feGaussianBlur stdDeviation="2.5"/>
<feComposite in2="hardAlpha" operator="out"/>
<feColorMatrix type="matrix" values="0 0 0 0 0 0 0 0 0 0 0 0 0 0 0 0 0 0 0.25 0"/>
<feBlend mode="normal" in2="BackgroundImageFix" result="effect1_dropShadow_0_1"/>
<feBlend mode="normal" in="SourceGraphic" in2="effect1_dropShadow_0_1" result="shape"/>
</filter>
</defs>
</svg>
